<?xml version="1.0" encoding="UTF-8"?>
<svg xmlns="http://www.w3.org/2000/svg" version="1.1" viewBox="0 0 2448 2777.8">
  <defs>
    <style>
      .cls-1 {
        fill: none;
      }

      .cls-2 {
        fill: #ecd5d5;
      }

      .cls-3 {
        fill: #0202dd;
      }

      .cls-4 {
        fill: #0101dd;
      }

      .cls-5 {
        fill: #0504dd;
      }

      .cls-6 {
        fill: #0303dd;
      }

      .cls-7 {
        fill: #645dd9;
      }

      .cls-8 {
        fill: #f4ded5;
      }

      .cls-9 {
        fill: #f5dcd7;
      }

      .cls-10 {
        fill: #000090;
      }

      .cls-11 {
        fill: #544dda;
      }

      .cls-12 {
        fill: #006;
      }

      .cls-13 {
        fill: #0a08dd;
      }

      .cls-14 {
        fill: #f9e0d5;
      }

      .cls-15 {
        fill: #0604dd;
      }

      .cls-16 {
        fill: #c6b3d7;
      }

      .cls-17 {
        fill: #00d;
      }

      .cls-18 {
        fill: #0404dd;
      }

      .cls-19 {
        fill: #f2dbd7;
      }
    </style>
  </defs>
  <!-- Generator: Adobe Illustrator 28.6.0, SVG Export Plug-In . SVG Version: 1.2.0 Build 709)  -->
  <g>
    <g id="_レイヤー_1" data-name="レイヤー_1">
      <g>
        <path class="cls-1" d="M0,2263.2V-496.3c3143.7-290.9,2482.7,366.2,2471.6,2554.6-1.1,221.1-41.4,456.7-23.6,709.7-32.9,0-56.1,6.5-57.7-34-7.6-42.8-29.5-81.6-46.8-120.6-46.4-129.3-88.3-261.9-159.1-381.8-71.5-137.8-50.2-155.2-197.9-230.3-75.9-36.2-166.1-49.8-249.1-63.5-31.3-4.4-56.6-27.3-89.5-24.2-47.4-.9-82-37-129.4-39.8-71.3-28.8.2-112.6,26.8-151.5,22.1-44.6,29.1-96.5,52-141.5,28-47.2,52.4-107.1,75-156.6,96.4-42.5,138.7-55.4,198.3-151.7,18.1-31,85.1-99.4,48-129.3-110.1-46.4-99.8-60.7-80.4-172.2,42.3-37.4,20.4-77.1,18.6-126.7-16.2-62.3,4.3-129.9-12.6-192.5-7.5-18.9,17.4-4.6,8.5-20.6-16.1-62.3-62.4-107.3-91.9-162.6-8.7-31.3-24.2-60-32.2-89.3-37.5-40.7-71.3-88.4-121.9-113.6-46.2-16.6-77.6-61-126.8-68.3-28.6-8.6-61.4-2.8-87.4-19.2-42.6-23.3-93-7.2-139.1-7.2-45.9-5.9-24.4-34.6-89.2-5.5-42.9,14.9-93.5-14.5-129.6,24.4-20.8,26.9-37.1,10.7-55.8,18.4-11.2,17.1-25.9,27-47,25.5-22.2,6.6-42.2,21.3-65.4,26.9-87.9,25.5-80.4,101.6-137.1,138.3-104.1,71.9-229,147.5-256.2,279.4,32-47.9,57.6-131.9,122.2-139.9-6.1,52.5-59,94.5-80.8,142.4,1.2,15.5-17.1,21.3-18.5,34.4-.9,46.3-46.8,77.8-49.7,125.3-41.7,126.1-59.3,258.3,4,380.6,3.6,13.6,11,23.9,24,30.6,27.2,23,44.5,56.7,71.9,80.3,24.5,23.1-2.5,22.2-15.8,29.7,45.3,12.9,55.8,72.4,47.5,115.7.2,13.5,19.9,16.9,19.7,32.8,3.5,12.9,3.6,13.2,16.4,13.9,54.7,37.3-41.5,52.3-71.2,45.9,38.6,24.1,103.4-39.4,96.3,4.6-3.2,37.9,25.9,77,58.8,93.2,16.4-3,2.8,59.3,4.4,72.3,1.3,38.4-27.6,59.1-42.5,88.7-3.6,18.4-17.9,23.3-31.9,29.1-44.5,17.4-68.8,64-103.6,93.5-33.4,21.4-57,54-88,77.9-50,27.7-106.7,47-158.6,72.9-56.9,35-112,73.4-173.1,100.9-24.7,26.4-63.4,28.3-89,52.1-3.7,4.5-7.9,10.5-15.7,8Z"/>
        <path class="cls-17" d="M2164.1,2245.4"/>
        <path class="cls-10" d="M128.6,2767.9c10-6.7,41.9-6.7,51.8,0h-51.8Z"/>
        <g>
          <path class="cls-17" d="M723.1,2196.9c20.8,28.5,41.5,57.2,59.2,87.8-12.8-28.2-34.9-57.5-59.2-87.8Z"/>
          <path class="cls-17" d="M1232.4,2487.4c63.6-29.9,74.1-96.4,98.7-154.5l-8.7-2.3c-23,49.9-54,95.2-96.7,130.9-97.2,75.5-23.1,129.5-181.7,76.5,27.2,16,112.1,32.2,110.5,70.4.5,9.1-6,27.6,6.2,30.7-25.3-33.2,39-49.6,34-82.2-1.4-30.7,11.7-53.5,37.7-69.5Z"/>
        </g>
        <path class="cls-17" d="M657.5,2113.4c-40.5-74.8-72.5-172.9-39.1-255.1,24.1-4.6,86-145.1,82.5-172.6,22.1-8.2-3.6,167.2-44.2,205.4-74.3,113.5,86.6,278.7,115.3,377.8"/>
        <path class="cls-17" d="M1491.7,1824.2c-19.8-.3-12.8-33.1-2.3-50.5s0-11.7-6-12.6c-15.8-2.5-33.1-.2-48.5,2.2-48.7,8.3-219.8-20.1-256.7-5.8-97.1,37.6-45.1-10.4,12.7-21.6,63.5-1.6,127.3-5.9,190.8-3.5,59,17.8,111.5-11.6,166.8-30.2,29.4-.3-63.7,94-56.7,122.1Z"/>
        <path class="cls-9" d="M528,654.1"/>
        <path class="cls-19" d="M560.1,555"/>
        <path class="cls-14" d="M2096.4,2066.1c-1.1-.5-1.6-1.3-1.6-2.4,1,.5,1.5,1.3,1.6,2.4Z"/>
        <path class="cls-14" d="M2393.9,2737.7c-1-.5-1.2-1.3-1-2.3.9.5,1.2,1.3,1,2.3Z"/>
        <path class="cls-17" d="M1595.1,2061.9c-33.8-166.2,37.2,76.9,47.2,119.1,30,89.2,71.6,174.2,99.4,264.2,23.2,72.8,32.4,148.7,46.8,223.4,13.1,43.1-10.2,82.6,53.2,74.6l-.2-.2c2.1,3.7,8.4-.5,10.7,3.2-10.4,5.1-19.6-5.6-28.7,1-6.7,5.5-8.6-4.4-14.3-4.3-29.8,16.2-17.9-45.3-24.8-61.8-6.4-9.5,4.2-21.5-2.9-30.3-15.8-32.8-14.9-74.8-22.8-111.4-28.2-137.3-160.1-335-163.6-477.7Z"/>
        <path class="cls-16" d="M306.8,2519.8c-1.9,39.3-14.7,88.6-26.2,126.1,4.3-40.9,16.8-85.1,26.2-126.1Z"/>
        <path class="cls-17" d="M568.7,2685.1c-22-26.1-84.2-18.6-41.2-7.2,18.4,6.1,42.4,13.5,50.1,32.6-21.6-11.4-47.5-11.2-72.2-11.9-33.4-9.7-48.9-47.5-89.7-14.3-17.4,9.4,11.8,37.1-12.9,18.1-32.6-20.3,2.4-39.9,20.4-55.4,11.6-7.7,27,.8,40.2-1.4,41.9-4.9,92.8-12.8,105.1,39.7h.2Z"/>
        <path class="cls-4" d="M1472.7,1583.7c-58.1,2.6-98-50.6-157.6-35.4-36.7,7.3-55.2-71.9-35.3-34.6,14.8,35.1,52.7,16,80.4,14.7,39.8,3.5,71.4,35.9,112.9,32.8,24.4,4,48.2-3.2,70.6-11.3-14.1,21.9-44.7,32.9-71,33.8Z"/>
        <path class="cls-3" d="M1067.3,2704.7c-7.9-.4-13.9,1.6-19.7-3.6-2.5-16.5,28.5-4.5,36.4-12.7-24.1-5.3-52.1-10.2-74.9-21.9,16.7-9.2,44.9,12.3,64.3,16.1,35.7,6.4,72.2-12.4,107.3-1.9-22.3,24.2-78.8,21.4-113.3,24Z"/>
        <path class="cls-18" d="M1854.7,2642c4.8-108.6,17.8,57,19.7,89.9-9.8,18.7-20.6-77-19.7-89.9Z"/>
        <path class="cls-6" d="M1897.4,2577.4c13.2-106.7,21,19.2,18.2,50.5-8.8,9.2-19.2-39.3-18.2-50.5Z"/>
        <path class="cls-5" d="M521.3,2491.1c-34.9-1.4,72.5-36.6,85.3-35.9-14.7,18.7-57.9,32.5-85.3,35.9Z"/>
        <path class="cls-15" d="M407.2,2526.8c-53.6-12.8,30.6-19.8,44.7-21.7-2.2,12.2-30.4,20.5-44.7,21.7Z"/>
        <path class="cls-13" d="M684.9,2739.3c17.8-10.8,69-17.1,98.6-22.8-11.7,29.3-70.5,12.1-98.6,22.8Z"/>
        <path class="cls-11" d="M618.5,2752.7c-.3,6.3-7.4-.4-3.5-3.2,1.7-.9,3.4,1.4,3.5,3.2Z"/>
        <path class="cls-17" d="M1595.1,2061.9c1.3.2,3.3,0,3.5,1.8-.6,1.8-3.8,0-3.5-1.8Z"/>
        <path class="cls-17" d="M569.9,2689.6c-3.3-4.5.7-5.3-.2,0h.2Z"/>
        <path class="cls-7" d="M783.3,2286.3c.3.2.6.5.8.7-.6.2-.5-.9-.8-.7Z"/>
        <path class="cls-17" d="M569.7,2689.6c.3,0,.5,0,.8,0-.3,0-.6-.1-.8,0Z"/>
        <path class="cls-14" d="M1133.3,907.6c0,0,194.3-264.7,191.4-270.8q6.6,68.6-16.3,114c-32.9,65.3-148.9,168-175.2,156.8Z"/>
        <path class="cls-12" d="M766.2,1324.3c10.1,142.8-109.8-154.3-87-170.7,11.8,13,31.5,63,47.4,70.4-5.4-27.7,3.6-111.4,5.6-109.8,4,24.2,33.9,175.5,33.9,210.1Z"/>
        <path class="cls-8" d="M1494.2,1201.9"/>
        <path class="cls-19" d="M564,607.2"/>
        <path class="cls-17" d="M2142.9,2704.8c-64.1-2.2-18.5-77.9,11.4-98.3,11-16.8,24.2-57.1,48.1-29.7,14.9,19.3,17.8,57.6-11.8,64.2-36.5-3.4-77,27.9-43,61.6,2,3.4-3.2,2.9-4.7,2.2Z"/>
        <path class="cls-17" d="M1621.6,2140.4"/>
        <path class="cls-17" d="M1610.6,2098.1c-2.2-2-3.9-7.8-.8-9.5,2,1.6.2,6.8.8,9.5Z"/>
        <path class="cls-17" d="M1612.8,2104.5v-2.4c3.2.2,1,11.6,0,2.4Z"/>
        <path class="cls-17" d="M1617.6,2125.5c-.9-1-.9-1.8,0-2.9.9,1,.9,1.8,0,2.9Z"/>
        <path class="cls-17" d="M1612.8,2102c-1.5-.8-1.9-2.3-1.9-3.8,1.5.8,1.9,2.3,1.9,3.8Z"/>
        <path class="cls-17" d="M1447.7,977.6c.1-.2.2-.5.3-.7-.1.2-.7.5-.3.7Z"/>
        <path class="cls-2" d="M2190.8,2590.9c1.2,11.2-10.8,30.4-11.5,8.6-8.4-14.7,11.8-34.8,11.5-8.6Z"/>
        <path class="cls-17" d="M1831.3,1072.8c-1.4-79.3,40.9-151.8,49.9-230,7.8-67.6-.6-145.7-16.1-212-30.8-131.7-113.8-253-218.7-338.7-137.9-112.7-383.5-187.5-560.2-165-225.3,28.7-422.5,128.4-568,295.2-46.3,53.1-154.8,220.7-146.9,265.6,33.6-51.4,54.2-75.7,86.6-104.9-55.4,63.3-81.1,196.8-91.6,263.8-25.9,76.5-7.1,211,13,290,8.6,34.4,89.6,159.3,106,192.5,16.4,33.2,51.3,93.3,60.5,112,9.6,19.5,30.3,52.7,21.5,80.8-5.7,18.1-27.8,37-68.9,46.7,33,15.2,102.1,18.4,118,49.9,19.2,38.1,47.4,53.9,57.6,62.1,71.7,58,17.8-187.7,27.2-221-.7-21.6,14.4-38.8,17.3-58.6,2.5-1.7,5.2,62.8,12.4,93.3,13,149.2,80.8,269.3,199.1,361.5,68.8,74.4,147.4,187.2,259.9,174.9,40,8.2,73,3.1,108.2-14.3,28.4-16.2,73.3-2.7,80.1-43.1,11.7,7.1,7.3,39.7,8.8,54.7-7.7,76-15.9,154.2-36.7,227.7-19.9,52.7-50.1,100.5-74.1,151.3-25.4,45.2-84.1,61.3-103.8,110.5-15.3,75.6-92.5,19.5-139.4,16.2,24.9,19.7,62.1,22.3,88.8,40.4,1.4.9.7,2.1-.1,3.2-1.8,2.8,3.6,3.9,5.5,4.7,34.9,2.8,20.8,31.7,25.1,55,7,11.6,30.5-3,5.3-1.8-7.1-35.8,41.5-42.2,39.2-74.7-7.8-58.7,55.3-74.2,86.5-110.7,39-73.2,67.1-154.4,99.6-231.5,20.2-77.2,17.6-157.7,29.6-235.8,22.3-40.3,71.6-87.7,57.2-135.8-23.3,49.8-51.1,101-111.4,110.3-51.2,12.2-95.9,53.3-150.8,35.9-89.4,4.3-133.6-68.9-195.9-117.3-90.5-75.9-177.8-160.2-217.8-274.5-37.8-77.9,8-175.5,5.1-255.7,17.9-57-3.6-115.9,6.9-172.8,14.4-24,25.7-45.4,28.6-73,30-30.8,76,17.9,101.9,36.8,73,74,27.4,223.7,137.2,271.3,323,120.1,376.8-231.6,442.5-137,26.6,114.9,10.3,164.2,153.1,158.4,48-3.8,66.3-18.1,104.3-40.5,67.8-61,129.4-139.8,160.2-226.1-.3-43.1-114.5-40.6-102.6-89.4ZM727.5,811.4c-18.1-6.1-9.5-131.7-18.9-135.5-13.8-5.6-58,164.3-73.5,188.6-9.9-19.1-43.8-99.2-36.2-104.2-16,10.5-12,116.6-23.5,136.9-5.4,9.5-96-32.5-116.3,70.9,21.7,139.3-28.6,251,102.5,355,126.6,91.7,116.9-31.3,131.8,178.8,1.3,18.1,14.3,105.5,2.8,121-13,17.6-84.1-109.9-90.4-139.1-5.5-25.8-67.1-152.2-84.1-174.3-24.6-32.1-88.8-157-93.9-175.9-53.5-201.1-14.8-389.9,57.7-517,90.9-159.5,207.3-269.6,281.3-318,82.8-54.1,216.2-103.5,312.9-124.2,102.2-21.9,221.4,7.4,321.2,38.4,140.5,43.6,256.6,145.1,311.7,196.5,33.9,31.6,62.1,93.7,56.3,122.2-6.5,31.9-19.6,64.1-39.4,90.2,8.9-11.7-26.9-75.3-35.7-83.8-2.6,11.1-2.8,144.4-20.7,125.5-16.4-17.3-218-169.1-235.8-82-2.9,14.2-7.8,28-8.5,42.4-5.3,103.9-62.2-44-70.8-71.1-8-25.3-29.3-47.4-46.7-68.3-38-46.7-77.3,13.9-131.5,61-33,28.7-2.2-33.6-5.6-47.6-14.7-59.1-87.7,63.6-90.8,77.4-14.6,63.7-111.3,163.7-154.8,160.7-17.8-15.2-1.4-44.1-12.5-61.1-17.1-26.2-86.6-87.9-188.6,136.5ZM493.4,1063.3c3.4-46.9-33.6-141.6,41-143.7,54.9-3.9,49.5,115.6,49.9,154.1-19.8,27.6-49.3,52.4-32.8,91.4,1.8,45,232.5,188.8,96.3,188.6-71.1-2.2-125.3-73.7-153.4-133.1-20.3-51.2,1-104.7-1-157.2ZM1390.6,1271.8c-56.5,115.5-159.1,136.5-258.4,115.2-63.4-3.9-109-53.4-99.7-117.7,1.6-26.5,9.1-72.5,31.7-97.3,82.4-80.6,122-57.8,245.3-37.9,103.3,16.7,127.4,36.4,81,137.7ZM1545,1153.5c-57.4,19-108.4-22.3-160.3-40.3-49.4-18.3-101.7-27.5-153.4-36.5-110.8-27.9-266,4.3-337.7-101.4-6.5-20.3,75.8-25.6,92.1-56.5,21.1-24,49-39.7,73.4-59.7,17.8-12.4,61.7-65.1,29.2-5.3-83.7,129.7-128.7,143.5,58.1,146.8,70.8-5.2,124.6,64.4,195.9,50,31.9-26.1,65.1-51.1,101.1-70.9-118.4,57.2-153.9,4.8-88.4-116.4,18.5-34.3,39.2-78.3,69.7-103,10.9,15.3-17.7,165.8-75.7,219.3,20.3,2.9,150.8-43.4,217.4-111.6,4.1,16.4-62,106.4-23.4,88.6,34.7-14.9,146.1-88.2,155.4-101.2-1.3,30-1.2,59.8,2.7,89.7,59.9,94.4-106.3,61.8-129.3,131.7-38.9,73.8-18.1,38.1,45.6,24.8,33.9-8,66.9-36.4,102.4-28.9,23.4,12.7,7.5,49.3-15.4,52.6-54,4.1-108,10.7-159.7,28.3ZM1843.7,1210.1c-28.8,127-118.1,182.4-212.5,182.2-86.3,11.1-82-115.5-56.6-162.4,16-18.8,23.6-33.3,53.4-44,39.5-14.3,78.5-24.6,138.1-16,24.6,2.8,81.4,13.4,77.6,40.2Z"/>
        <path class="cls-14" d="M579.3,1150.2c22.2-100.8,65.7,23.2,54.4,62.4-19.4-24.8-45.9-3.3-54.4-62.4Z"/>
      </g>
    </g>
  </g>
</svg>