<?xml version="1.0" encoding="utf-8"?>
<!-- Generator: Adobe Illustrator 28.6.0, SVG Export Plug-In . SVG Version: 9.03 Build 54939)  -->
<svg version="1.1" id="レイヤー_1" xmlns="http://www.w3.org/2000/svg" xmlns:xlink="http://www.w3.org/1999/xlink" x="0px"
	 y="0px" viewBox="0 0 2448 2777.8" style="enable-background:new 0 0 2448 2777.8;" xml:space="preserve">
<style type="text/css">
	.st0{fill:none;}
	.st1{fill:#000;}
	.st2{fill:#000;}
	.st3{fill:#000;}
	.st4{fill:#000;}
	.st5{fill:#000;}
	.st6{fill:#000;}
	.st7{fill:#000;}
	.st8{fill:#000;}
	.st9{fill:#000;}
	.st10{fill:#000;}
	.st11{fill:#000;}
	.st12{fill:#000;}
	.st13{fill:#000;}
	.st14{fill:#000;}
	.st15{fill:#000;}
	.st16{fill:#000;}
</style>
<g>
	<path class="st0" d="M0,2263.2C0,1343.5,0,423.7,0-496.3c3143.7-290.9,2482.7,366.2,2471.6,2554.6
		c-1.1,221.1-41.4,456.7-23.6,709.7c-32.9,0-56.1,6.5-57.7-34c-7.6-42.8-29.5-81.6-46.8-120.6c-46.4-129.3-88.3-261.9-159.1-381.8
		c-71.5-137.8-50.2-155.2-197.9-230.3c-75.9-36.2-166.1-49.8-249.1-63.5c-31.3-4.4-56.6-27.3-89.5-24.2c-47.4-0.9-82-37-129.4-39.8
		c-71.3-28.8,0.2-112.6,26.8-151.5c22.1-44.6,29.1-96.5,52-141.5c28-47.2,52.4-107.1,75-156.6c96.4-42.5,138.7-55.4,198.3-151.7
		c18.1-31,85.1-99.4,48-129.3c-110.1-46.4-99.8-60.7-80.4-172.2c42.3-37.4,20.4-77.1,18.6-126.7c-16.2-62.3,4.3-129.9-12.6-192.5
		c-7.5-18.9,17.4-4.6,8.5-20.6c-16.1-62.3-62.4-107.3-91.9-162.6c-8.7-31.3-24.2-60-32.2-89.3c-37.5-40.7-71.3-88.4-121.9-113.6
		c-46.2-16.6-77.6-61-126.8-68.3c-28.6-8.6-61.4-2.8-87.4-19.2c-42.6-23.3-93-7.2-139.1-7.2c-45.9-5.9-24.4-34.6-89.2-5.5
		c-42.9,14.9-93.5-14.5-129.6,24.4c-20.8,26.9-37.1,10.7-55.8,18.4c-11.2,17.1-25.9,27-47,25.5c-22.2,6.6-42.2,21.3-65.4,26.9
		c-87.9,25.5-80.4,101.6-137.1,138.3c-104.1,71.9-229,147.5-256.2,279.4c32-47.9,57.6-131.9,122.2-139.9
		c-6.1,52.5-59,94.5-80.8,142.4c1.2,15.5-17.1,21.3-18.5,34.4c-0.9,46.3-46.8,77.8-49.7,125.3c-41.7,126.1-59.3,258.3,4,380.6
		c3.6,13.6,11,23.9,24,30.6c27.2,23,44.5,56.7,71.9,80.3c24.5,23.1-2.5,22.2-15.8,29.7c45.3,12.9,55.8,72.4,47.5,115.7
		c0.2,13.5,19.9,16.9,19.7,32.8c3.5,12.9,3.6,13.2,16.4,13.9c54.7,37.3-41.5,52.3-71.2,45.9c38.6,24.1,103.4-39.4,96.3,4.6
		c-3.2,37.9,25.9,77,58.8,93.2c16.4-3,2.8,59.3,4.4,72.3c1.3,38.4-27.6,59.1-42.5,88.7c-3.6,18.4-17.9,23.3-31.9,29.1
		c-44.5,17.4-68.8,64-103.6,93.5c-33.4,21.4-57,54-88,77.9c-50,27.7-106.7,47-158.6,72.9c-56.9,35-112,73.4-173.1,100.9
		c-24.7,26.4-63.4,28.3-89,52.1C12.1,2259.7,7.8,2265.7,0,2263.2z"/>
	<path class="st1" d="M2164.1,2245.4"/>
	<path class="st2" d="M128.6,2767.9c10-6.7,41.9-6.7,51.8,0C163.2,2767.9,145.9,2767.9,128.6,2767.9z"/>
	<g>
		<path class="st1" d="M723.1,2196.9c20.8,28.5,41.5,57.2,59.2,87.8C769.5,2256.4,747.4,2227.2,723.1,2196.9z"/>
		<path class="st1" d="M1232.4,2487.4c63.6-29.9,74.1-96.4,98.7-154.5l-8.7-2.3c-23,49.9-54,95.2-96.7,130.9
			c-97.2,75.5-23.1,129.5-181.7,76.5c27.2,16,112.1,32.2,110.5,70.4c0.5,9.1-6,27.6,6.2,30.7c-25.3-33.2,39-49.6,34-82.2
			C1193.4,2526.3,1206.4,2503.5,1232.4,2487.4z"/>
	</g>
	<path class="st1" d="M657.5,2113.4c-40.5-74.8-72.5-172.9-39.1-255.1c24.1-4.6,86-145.1,82.5-172.6c22.1-8.2-3.6,167.2-44.2,205.4
		c-74.3,113.5,86.6,278.7,115.3,377.8"/>
	<path class="st1" d="M1491.7,1824.2c-19.8-0.3-12.8-33.1-2.3-50.5c3.1-5.1-0.1-11.7-6-12.6c-15.8-2.5-33.1-0.2-48.5,2.2
		c-48.7,8.3-219.8-20.1-256.7-5.8c-97.1,37.6-45.1-10.4,12.7-21.6c63.5-1.6,127.3-5.9,190.8-3.5c59,17.8,111.5-11.6,166.8-30.2
		C1577.8,1701.8,1484.8,1796.1,1491.7,1824.2z"/>
	<path class="st3" d="M528,654.1"/>
	<path class="st4" d="M560.1,555"/>
	<path class="st5" d="M2096.4,2066.1c-1.1-0.5-1.6-1.3-1.6-2.4C2095.9,2064.2,2096.4,2065,2096.4,2066.1z"/>
	<path class="st5" d="M2393.9,2737.7c-1-0.5-1.2-1.3-1-2.3C2393.8,2735.9,2394.1,2736.7,2393.9,2737.7z"/>
	<path class="st1" d="M1595.1,2061.9c-33.8-166.2,37.2,76.9,47.2,119.1c30,89.2,71.6,174.2,99.4,264.2
		c23.2,72.8,32.4,148.7,46.8,223.4c13.1,43.1-10.2,82.6,53.2,74.6l-0.2-0.2c2.1,3.7,8.4-0.5,10.7,3.2c-10.4,5.1-19.6-5.6-28.7,1
		c-6.7,5.5-8.6-4.4-14.3-4.3c-29.8,16.2-17.9-45.3-24.8-61.8c-6.4-9.5,4.2-21.5-2.9-30.3c-15.8-32.8-14.9-74.8-22.8-111.4
		C1730.5,2402.2,1598.6,2204.5,1595.1,2061.9z"/>
	<path class="st1" d="M568.7,2685.1c-22-26.1-84.2-18.6-41.2-7.2c18.4,6.1,42.4,13.5,50.1,32.6c-21.6-11.4-47.5-11.2-72.2-11.9
		c-33.4-9.7-48.9-47.5-89.7-14.3c-17.4,9.4,11.8,37.1-12.9,18.1c-32.6-20.3,2.4-39.9,20.4-55.4c11.6-7.7,27,0.8,40.2-1.4
		c41.9-4.9,92.8-12.8,105.1,39.7L568.7,2685.1z"/>
	<path class="st6" d="M1472.7,1583.7c-58.1,2.6-98-50.6-157.6-35.4c-36.7,7.3-55.2-71.9-35.3-34.6c14.8,35.1,52.7,16,80.4,14.7
		c39.8,3.5,71.4,35.9,112.9,32.8c24.4,4,48.2-3.2,70.6-11.3C1529.5,1571.8,1499,1582.8,1472.7,1583.7z"/>
	<path class="st7" d="M1067.3,2704.7c-7.9-0.4-13.9,1.6-19.7-3.6c-2.5-16.5,28.5-4.5,36.4-12.7c-24.1-5.3-52.1-10.2-74.9-21.9
		c16.7-9.2,44.9,12.3,64.3,16.1c35.7,6.4,72.2-12.4,107.3-1.9C1158.3,2704.8,1101.8,2702,1067.3,2704.7z"/>
	<path class="st8" d="M1854.7,2642c4.8-108.6,17.8,57,19.7,89.9C1864.6,2750.5,1853.7,2654.9,1854.7,2642z"/>
	<path class="st9" d="M1897.4,2577.4c13.2-106.7,21,19.2,18.2,50.5C1906.8,2637.1,1896.4,2588.6,1897.4,2577.4z"/>
	<path class="st10" d="M521.3,2491.1c-34.9-1.4,72.5-36.6,85.3-35.9C591.9,2473.8,548.6,2487.6,521.3,2491.1z"/>
	<path class="st11" d="M407.2,2526.8c-53.6-12.8,30.6-19.8,44.7-21.7C449.7,2517.4,421.6,2525.6,407.2,2526.8z"/>
	<path class="st12" d="M684.9,2739.3c17.8-10.8,69-17.1,98.6-22.8C771.8,2745.7,713,2728.6,684.9,2739.3z"/>
	<path class="st13" d="M618.5,2752.7c-0.3,6.3-7.4-0.4-3.5-3.2C616.7,2748.6,618.4,2750.9,618.5,2752.7z"/>
	<path class="st1" d="M1595.1,2061.9c1.3,0.2,3.3,0,3.5,1.8C1598,2065.5,1594.8,2063.6,1595.1,2061.9z"/>
	<path class="st1" d="M569.9,2689.6c-3.3-4.5,0.7-5.3-0.2,0.1L569.9,2689.6z"/>
	<path class="st14" d="M783.3,2286.3c0.3,0.2,0.6,0.4,0.8,0.7C783.5,2287.1,783.6,2286.1,783.3,2286.3z"/>
	<path class="st1" d="M569.7,2689.6c0.3,0,0.5,0,0.8,0C570.2,2689.6,569.9,2689.5,569.7,2689.6z"/>
	<path class="st5" d="M1133.3,907.6c-0.1,0,194.3-264.7,191.4-270.8c6.6,68.6,6.6,68.6-16.3,114
		C1275.5,816.2,1159.6,918.8,1133.3,907.6z"/>
	<path class="st15" d="M766.2,1324.3c10.1,142.8-109.8-154.3-87-170.7c11.8,13,31.5,63,47.4,70.4c-5.4-27.7,3.6-111.4,5.6-109.8
		C736.4,1138.4,766.2,1289.8,766.2,1324.3z"/>
	<path class="st16" d="M1494.2,1201.9"/>
	<path class="st4" d="M564,607.2"/>
	<path class="st1" d="M1621.6,2140.4"/>
	<path class="st1" d="M1610.6,2098.1c-2.2-2-3.9-7.8-0.8-9.5C1611.8,2090.2,1610.1,2095.4,1610.6,2098.1z"/>
	<path class="st1" d="M1612.8,2104.5c0-1.2,0-1.8,0-2.4C1616,2102.2,1613.8,2113.6,1612.8,2104.5z"/>
	<path class="st1" d="M1617.6,2125.5c-0.9-1-0.9-1.8,0-2.9C1618.5,2123.7,1618.5,2124.5,1617.6,2125.5z"/>
	<path class="st1" d="M1612.8,2102c-1.5-0.8-1.9-2.3-1.9-3.8C1612.4,2099,1612.8,2100.4,1612.8,2102z"/>
	<path class="st1" d="M1447.7,977.6c0.1-0.2,0.2-0.5,0.3-0.7C1447.9,977.1,1447.4,977.4,1447.7,977.6z"/>
	<path class="st1" d="M2202.3,2576.8c-23.8-27.4-37,12.9-48.1,29.7c-29.9,20.4-75.5,96.1-11.4,98.3c1.5,0.7,6.7,1.2,4.7-2.2
		c-34-33.8,6.4-65,43-61.6C2220.2,2634.4,2217.2,2596.1,2202.3,2576.8z M2179.3,2599.5c-8.4-14.7,11.8-34.8,11.5-8.6
		C2192,2602.1,2180,2621.3,2179.3,2599.5z"/>
	<path class="st1" d="M1831.3,1072.8c-1.4-79.3,40.9-151.8,49.9-230c7.8-67.6-0.6-145.7-16.1-212c-30.8-131.7-113.8-253-218.7-338.7
		c-137.9-112.7-383.5-187.5-560.2-165c-225.3,28.7-422.5,128.4-568,295.2C472,475.3,363.5,642.9,371.4,687.8
		C405,636.3,425.6,612,458,582.8c-55.4,63.3-81.1,196.8-91.6,263.8c-25.9,76.5-7.1,211,13,290c8.6,34.4,89.6,159.3,106,192.5
		c16.4,33.2,51.3,93.3,60.5,112c9.6,19.5,30.3,52.7,21.5,80.8c-5.7,18.1-27.8,37-68.9,46.7c33,15.2,102.1,18.4,118,49.9
		c19.2,38.1,47.4,53.9,57.6,62.1c71.7,58,17.8-187.7,27.2-221c-0.7-21.6,14.4-38.8,17.3-58.6c2.5-1.7,5.2,62.8,12.4,93.3
		c13,149.2,80.8,269.3,199.1,361.5c68.8,74.4,147.4,187.2,259.9,174.9c40,8.2,73,3.1,108.2-14.3c28.4-16.2,73.3-2.7,80.1-43.1
		c11.7,7.1,7.3,39.7,8.8,54.7c-7.7,76-15.9,154.2-36.7,227.7c-19.9,52.7-50.1,100.5-74.1,151.3c-25.4,45.2-84.1,61.3-103.8,110.5
		c-15.3,75.6-92.5,19.5-139.4,16.2c24.9,19.7,62.1,22.3,88.8,40.4c1.4,0.9,0.7,2.1-0.1,3.2c-1.8,2.8,3.6,3.9,5.5,4.7
		c34.9,2.8,20.8,31.7,25.1,55c7,11.6,30.5-3,5.3-1.8c-7.1-35.8,41.5-42.2,39.2-74.7c-7.8-58.7,55.3-74.2,86.5-110.7
		c39-73.2,67.1-154.4,99.6-231.5c20.2-77.2,17.6-157.7,29.6-235.8c22.3-40.3,71.6-87.7,57.2-135.8c-23.3,49.8-51.1,101-111.4,110.3
		c-51.2,12.2-95.9,53.3-150.8,35.9c-89.4,4.3-133.6-68.9-195.9-117.3c-90.5-75.9-177.8-160.2-217.8-274.5
		c-37.8-77.9,8-175.5,5.1-255.7c17.9-57-3.6-115.9,6.9-172.8c14.4-24,25.7-45.4,28.6-73c30-30.8,76,17.9,101.9,36.8
		c73,74,27.4,223.7,137.2,271.3c323,120.1,376.8-231.6,442.5-137c26.6,114.9,10.3,164.2,153.1,158.4c48-3.8,66.3-18.1,104.3-40.5
		c67.8-61,129.4-139.8,160.2-226.1C1933.6,1119,1819.4,1121.6,1831.3,1072.8z M727.5,811.4c-18.1-6.1-9.5-131.7-18.9-135.5
		c-13.8-5.6-58,164.3-73.5,188.6c-9.9-19.1-43.8-99.2-36.2-104.2c-16,10.5-12,116.6-23.5,136.9c-5.4,9.5-96-32.5-116.3,70.9
		c21.7,139.3-28.6,251,102.5,355c126.6,91.7,116.9-31.3,131.8,178.8c1.3,18.1,14.3,105.5,2.8,121c-13,17.6-84.1-109.9-90.4-139.1
		c-5.5-25.8-67.1-152.2-84.1-174.3c-24.6-32.1-88.8-157-93.9-175.9c-53.5-201.1-14.8-389.9,57.7-517
		c90.9-159.5,207.3-269.6,281.3-318c82.8-54.1,216.2-103.5,312.9-124.2c102.2-21.9,221.4,7.4,321.2,38.4
		c140.5,43.6,256.6,145.1,311.7,196.5c33.9,31.6,62.1,93.7,56.3,122.2c-6.5,31.9-19.6,64.1-39.4,90.2c8.9-11.7-26.9-75.3-35.7-83.8
		c-2.6,11.1-2.8,144.4-20.7,125.5c-16.4-17.3-218-169.1-235.8-82c-2.9,14.2-7.8,28-8.5,42.4c-5.3,103.9-62.2-44-70.8-71.1
		c-8-25.3-29.3-47.4-46.7-68.3c-38-46.7-77.3,13.9-131.5,61c-33,28.7-2.2-33.6-5.6-47.6c-14.7-59.1-87.7,63.6-90.8,77.4
		C1068.7,639,972,739,928.6,735.9c-17.8-15.2-1.4-44.1-12.5-61.1C899,648.6,829.4,586.9,727.5,811.4z M493.4,1063.3
		c3.4-46.9-33.6-141.6,41-143.7c54.9-3.9,49.5,115.6,49.9,154.1c-19.8,27.6-49.3,52.4-32.8,91.4c1.8,45,232.5,188.8,96.3,188.6
		c-71.1-2.2-125.3-73.7-153.4-133.1C474,1169.3,495.3,1115.8,493.4,1063.3z M633.7,1212.6c-19.4-24.8-45.9-3.3-54.4-62.4
		C601.5,1049.4,645,1173.4,633.7,1212.6z M1390.6,1271.8c-56.5,115.5-159.1,136.5-258.4,115.2c-63.4-3.9-109-53.4-99.7-117.7
		c1.6-26.5,9.1-72.5,31.7-97.3c82.4-80.6,122-57.8,245.3-37.9C1413,1150.8,1437.1,1170.5,1390.6,1271.8z M1545,1153.5
		c-57.4,19-108.4-22.3-160.3-40.3c-49.4-18.3-101.7-27.5-153.4-36.5c-110.8-27.9-266,4.3-337.7-101.4c-6.5-20.3,75.8-25.6,92.1-56.5
		c21.1-24,49-39.7,73.4-59.7c17.8-12.4,61.7-65.1,29.2-5.3c-83.7,129.7-128.7,143.5,58.1,146.8c70.8-5.2,124.6,64.4,195.9,50
		c31.9-26.1,65.1-51.1,101.1-70.9c-118.4,57.2-153.9,4.8-88.4-116.4c18.5-34.3,39.2-78.3,69.7-103c10.9,15.3-17.7,165.8-75.7,219.3
		c20.3,2.9,150.8-43.4,217.4-111.6c4.1,16.4-62,106.4-23.4,88.6c34.7-14.9,146.1-88.2,155.4-101.2c-1.3,30-1.2,59.8,2.7,89.7
		c59.9,94.4-106.3,61.8-129.3,131.7c-38.9,73.8-18.1,38.1,45.6,24.8c33.9-8,66.9-36.4,102.4-28.9c23.4,12.7,7.5,49.3-15.4,52.6
		C1650.7,1129.3,1596.7,1135.9,1545,1153.5z M1843.7,1210.1c-28.8,127-118.1,182.4-212.5,182.2c-86.3,11.1-82-115.5-56.6-162.4
		c16-18.8,23.6-33.3,53.4-44c39.5-14.3,78.5-24.6,138.1-16C1790.6,1172.6,1847.4,1183.2,1843.7,1210.1z"/>
</g>
</svg>
